<svg width="506" height="378" viewBox="0 0 506 378" fill="none" xmlns="http://www.w3.org/2000/svg">
<path d="M506 331.329H0V331.582H506V331.329Z" fill="#EBEBEB"/>
<path d="M239.844 286.194H44.4369C42.9061 286.191 41.4389 285.581 40.3574 284.498C39.2759 283.414 38.6685 281.946 38.6685 280.415V5.72792C38.6818 4.2059 39.2951 2.75059 40.3752 1.67812C41.4553 0.60564 42.9148 0.0026073 44.4369 0H239.844C241.377 0 242.846 0.608807 243.93 1.69249C245.014 2.77617 245.623 4.24596 245.623 5.77852V280.415C245.623 281.948 245.014 283.417 243.93 284.501C242.846 285.585 241.377 286.194 239.844 286.194ZM44.4369 0.202401C42.9732 0.205082 41.5704 0.788414 40.5363 1.82436C39.5023 2.8603 38.9215 4.26421 38.9215 5.72792V280.415C38.9215 281.879 39.5023 283.283 40.5363 284.319C41.5704 285.355 42.9732 285.938 44.4369 285.941H239.844C241.309 285.938 242.713 285.355 243.748 284.319C244.784 283.284 245.367 281.88 245.37 280.415V5.72792C245.367 4.26328 244.784 2.8594 243.748 1.82374C242.713 0.788085 241.309 0.205076 239.844 0.202401H44.4369Z" fill="#EBEBEB"/>
<path d="M458.75 286.194H263.333C261.801 286.191 260.333 285.581 259.249 284.498C258.166 283.415 257.557 281.947 257.554 280.415V5.72792C257.57 4.20497 258.186 2.74968 259.267 1.67748C260.349 0.605286 261.81 0.00257887 263.333 0H458.75C460.27 0.00526695 461.727 0.609476 462.805 1.68167C463.883 2.75386 464.495 4.20765 464.508 5.72792V280.415C464.508 281.944 463.902 283.411 462.823 284.494C461.743 285.577 460.279 286.188 458.75 286.194ZM263.333 0.202401C261.868 0.205076 260.464 0.788085 259.428 1.82374C258.393 2.8594 257.81 4.26328 257.807 5.72792V280.415C257.81 281.88 258.393 283.284 259.428 284.319C260.464 285.355 261.868 285.938 263.333 285.941H458.75C460.214 285.938 461.618 285.355 462.654 284.319C463.69 283.284 464.273 281.88 464.275 280.415V5.72792C464.273 4.26328 463.69 2.8594 462.654 1.82374C461.618 0.788085 460.214 0.205076 458.75 0.202401H263.333Z" fill="#EBEBEB"/>
<path d="M455.299 340.963H423.35V341.216H455.299V340.963Z" fill="#EBEBEB"/>
<path d="M339.364 338.22H305.553V338.473H339.364V338.22Z" fill="#EBEBEB"/>
<path d="M464.528 350.364H401.349V350.617H464.528V350.364Z" fill="#EBEBEB"/>
<path d="M72.5503 348.664H53.0895V348.917H72.5503V348.664Z" fill="#EBEBEB"/>
<path d="M112.221 348.664H81.5672V348.917H112.221V348.664Z" fill="#EBEBEB"/>
<path d="M247.07 344.394H191.855V344.647H247.07V344.394Z" fill="#EBEBEB"/>
<path d="M461.927 202.643C451.666 198.342 434.664 202.491 420.577 219.574C414.07 227.467 407.796 239.045 406.105 250.895C406.217 237.375 406.359 222.853 406.49 209.14C408.043 202.414 410.49 195.927 413.766 189.851C424.099 169.085 432.64 171.382 446.677 155.129C470.023 128.089 483.402 77.0739 460.177 97.4455C439.117 115.864 428.926 134.303 421.852 150.302C412.279 171.929 408.433 187.018 406.561 202.157C406.692 189.284 406.814 177.464 406.925 168.346C407.29 138.604 408.099 129.04 408.251 126.085C408.615 118.93 410.973 114.761 411.631 113.739C417.167 105.046 425.86 99.3582 434.371 89.4507C454.216 66.3872 465.672 37.8387 456.108 35.1468C446.12 32.384 432.994 44.9733 418.411 74.5338C410.052 91.4747 407.917 95.4822 406.267 128.676C406.126 131.56 405.488 142.429 405.185 157.528C402.827 141.285 398.343 125.144 390.521 114.447C375.432 93.8124 363.956 91.839 355.597 93.8124C347.237 95.7858 350.739 117.453 360.171 129.03C374.339 146.457 398.02 142.753 405.033 165.938C404.679 186.41 404.426 212.338 404.284 236.484C401.896 224.016 399.396 213.643 393.911 203.878C383.71 185.722 371.161 177.798 362.539 186.35C357.165 191.673 363.399 206.59 374.632 212.662C386.038 218.875 395.399 227.467 399.021 232.639C399.861 233.843 402.665 238.458 404.264 241.119C404.112 270.599 404.132 296.617 404.385 305.492L405.812 305.624C405.721 303.337 405.812 288.339 405.933 268.494C408.423 243.73 425.91 242.384 437.093 237.668C457.08 229.218 472.189 206.954 461.927 202.643Z" fill="#E6E6E6"/>
<path d="M390.632 331.329H420.122C420.846 331.372 421.565 331.174 422.166 330.765C422.766 330.357 423.214 329.762 423.441 329.072L425.546 292.468H385.228L387.313 329.042C387.535 329.736 387.982 330.337 388.582 330.751C389.183 331.165 389.904 331.368 390.632 331.329Z" fill="#E6E6E6"/>
<path d="M385.967 304.946H424.807C425.738 304.946 426.518 303.721 426.629 302.102L427.418 289.756C427.54 287.853 426.69 286.194 425.607 286.194H385.127C384.034 286.194 383.184 287.853 383.315 289.756L384.105 302.102C384.246 303.721 385.036 304.946 385.967 304.946Z" fill="#F5F5F5"/>
<path d="M188.232 252.464H149.948V324.629H188.232V252.464Z" fill="#F0F0F0"/>
<path d="M346.114 324.629H157.305V331.329H346.114V324.629Z" fill="#F0F0F0"/>
<path d="M188.232 324.619H353.461V252.453H188.232V324.619Z" fill="#FAFAFA"/>
<path d="M203.291 283.451H338.413V261.248H203.291V283.451Z" fill="#F0F0F0"/>
<path d="M203.291 311.979H338.413V289.776H203.291V311.979Z" fill="#F0F0F0"/>
<path d="M287.428 258.485H254.275C252.99 258.485 251.948 259.527 251.948 260.813V260.914C251.948 262.199 252.99 263.241 254.275 263.241H287.428C288.714 263.241 289.756 262.199 289.756 260.914V260.813C289.756 259.527 288.714 258.485 287.428 258.485Z" fill="#FAFAFA"/>
<path d="M287.428 287.013H254.275C252.99 287.013 251.948 288.055 251.948 289.341V289.442C251.948 290.728 252.99 291.77 254.275 291.77H287.428C288.714 291.77 289.756 290.728 289.756 289.442V289.341C289.756 288.055 288.714 287.013 287.428 287.013Z" fill="#FAFAFA"/>
<path d="M358.572 245.987H188.242V252.454H358.572V245.987Z" fill="#F0F0F0"/>
<path d="M144.595 252.464H188.232V245.997H144.595V252.464Z" fill="#E6E6E6"/>
<path d="M113.182 274.738C108.81 272.451 101.139 273.635 94.2678 280.648C90.6213 284.337 88.0075 288.919 86.6879 293.935C87.2445 287.975 87.8618 281.559 88.4387 275.507C89.3823 272.595 90.7096 269.821 92.3855 267.259C97.739 258.475 101.433 259.811 108.244 253.162C119.598 242.101 127.472 220.059 116.41 228.166C108.495 233.911 102.012 241.405 97.4657 250.065C92.4057 259.264 90.1388 265.782 88.7322 272.4C89.2786 266.723 89.7442 261.501 90.1793 257.473C91.4747 244.317 92.2033 240.148 92.3754 238.852C92.5658 236.936 93.2415 235.101 94.3386 233.519C97.152 229.886 101.2 227.7 105.309 223.652C114.953 214.21 121.096 202.015 116.977 200.477C112.666 198.878 106.381 203.948 98.8218 216.447C94.4803 223.622 93.3874 225.312 91.3836 239.915C91.2014 241.19 90.5133 245.987 89.8049 252.626C89.3798 245.359 88.0136 238.063 84.9574 233.033C79.0777 223.338 74.0784 222.033 70.3138 222.64C66.5491 223.247 67.2778 232.902 70.9918 238.377C76.6084 246.614 87.1838 245.876 89.4203 256.39C88.4893 265.417 87.3963 276.873 86.3843 287.54C85.8075 281.933 85.0991 277.258 83.0447 272.734C79.2295 264.324 73.9367 260.347 69.8887 263.798C67.3182 265.943 69.5042 272.764 74.2403 275.942C78.9765 279.12 82.8524 283.269 84.2591 285.698C84.583 286.254 85.6456 288.41 86.2831 289.645C85.008 302.588 84.0567 314.074 83.8341 318.001L84.4919 318.092C84.5425 317.08 85.1396 310.461 85.9593 301.697C87.9833 290.839 95.7757 290.91 100.896 289.25C110.035 286.295 117.554 277.025 113.182 274.738Z" fill="#F0F0F0"/>
<path d="M45.4793 252.19C51.1364 249.64 60.6593 251.695 68.7553 261.015C73.0577 265.904 76.0027 271.836 77.2966 278.219C77.0233 270.68 76.74 262.584 76.4566 254.943C75.4893 251.217 74.0293 247.637 72.1151 244.297C66.0431 232.871 61.307 234.278 53.2413 225.423C39.8121 210.688 31.5845 182.443 44.8518 193.434C54.3585 201.24 61.9417 211.13 67.0146 222.336C72.6717 234.258 75.0398 242.576 76.3149 251.027C76.0518 243.851 75.7988 237.263 75.5964 232.173C74.9588 215.596 74.3618 210.273 74.2302 208.624C74.137 206.213 73.4412 203.865 72.2062 201.793C68.988 197.026 64.1102 193.99 59.1514 188.586C47.7462 176.017 40.9354 160.25 46.218 158.631C51.7537 156.941 59.2627 163.762 67.8344 180.025C72.7527 189.355 73.9974 191.551 75.4345 210.041C75.566 211.65 76.072 217.701 76.4465 226.121C77.5192 217.013 79.776 207.966 83.9859 201.833C92.0819 190.094 98.4575 188.829 103.143 189.801C107.829 190.772 106.179 202.957 101.119 209.514C93.4683 219.442 80.2212 217.722 76.659 230.766C77.1549 242.172 77.671 256.633 78.1264 270.093C79.27 263.11 80.5147 257.281 83.4192 251.755C88.8435 241.473 95.7251 236.869 100.623 241.514C103.659 244.398 100.451 252.808 94.2678 256.39C88.0845 259.973 82.984 265.043 81.041 267.978C80.5856 268.656 79.0979 271.277 78.2478 272.785C78.7741 289.219 79.1485 303.732 79.1384 308.68L78.2984 308.751C78.2984 307.476 78.0556 299.117 77.671 288.046C75.9 274.252 66.1443 273.786 59.8396 271.327C48.576 266.935 39.8222 254.741 45.4793 252.19Z" fill="#E6E6E6"/>
<path d="M69.4131 331.329H95.5733C96.2198 331.363 96.8597 331.184 97.3939 330.818C97.928 330.452 98.3268 329.92 98.5283 329.305L100.38 296.86H64.6061L66.4682 329.305C66.6663 329.92 67.0627 330.453 67.5956 330.819C68.1284 331.185 68.7675 331.364 69.4131 331.329Z" fill="#E6E6E6"/>
<path d="M65.2639 307.931H99.7225C100.552 307.931 101.24 306.838 101.342 305.401L102.04 294.452C102.151 292.761 101.402 291.294 100.431 291.294H64.5656C63.5536 291.294 62.8452 292.761 62.9464 294.452L63.6548 305.401C63.756 306.838 64.4442 307.931 65.2639 307.931Z" fill="#F5F5F5"/>
<path d="M276.509 25.1583H60.9123V147.064H276.509V25.1583Z" fill="#E6E6E6"/>
<path d="M283.249 25.1583H62.0558V147.064H283.249V25.1583Z" fill="#F5F5F5"/>
<path d="M277.865 137.46V34.7723C277.865 32.4361 275.971 30.5422 273.635 30.5422L71.6597 30.5422C69.3235 30.5422 67.4296 32.4361 67.4296 34.7723V137.46C67.4296 139.796 69.3235 141.69 71.6597 141.69H273.635C275.971 141.69 277.865 139.796 277.865 137.46Z" fill="white"/>
<path d="M253 377.031C361.367 377.031 449.217 371.902 449.217 365.575C449.217 359.248 361.367 354.119 253 354.119C144.633 354.119 56.7833 359.248 56.7833 365.575C56.7833 371.902 144.633 377.031 253 377.031Z" fill="#F5F5F5"/>
<path d="M406.733 260.499H382.445V259.487H406.733C409.589 259.428 412.38 258.614 414.82 257.128C417.26 255.642 419.264 253.537 420.628 251.027L421.518 251.512C420.067 254.183 417.935 256.421 415.337 258C412.74 259.578 409.772 260.44 406.733 260.499Z" fill="#407BFF"/>
<path d="M377.638 259.487H367.69V260.499H377.638V259.487Z" fill="#407BFF"/>
<path d="M406.733 256.957H122.563C121.005 256.987 119.459 256.686 118.026 256.072C116.594 255.459 115.308 254.547 114.255 253.398C113.202 252.25 112.406 250.89 111.919 249.41C111.432 247.929 111.266 246.362 111.431 244.813L126.783 68.7249C127.127 65.4479 128.651 62.408 131.072 60.1732C133.493 57.9383 136.645 56.6613 139.939 56.5809H424.109C425.666 56.5522 427.212 56.8549 428.644 57.469C430.076 58.0831 431.36 58.9946 432.413 60.1429C433.466 61.2913 434.262 62.6503 434.75 64.1299C435.237 65.6094 435.405 67.1757 435.241 68.7249L419.98 244.813C419.635 248.105 418.097 251.157 415.657 253.394C413.217 255.631 410.043 256.898 406.733 256.957Z" fill="#407BFF"/>
<path d="M400.813 253.263H123.727C122.4 253.283 121.085 253.02 119.868 252.492C118.65 251.964 117.559 251.183 116.667 250.201C115.775 249.219 115.102 248.058 114.693 246.796C114.284 245.533 114.149 244.199 114.295 242.88L128.281 82.4679C128.365 81.6639 128.739 80.9181 129.333 80.3703C129.927 79.8225 130.701 79.5105 131.509 79.4926H423.34C423.721 79.486 424.099 79.5606 424.448 79.7114C424.798 79.8622 425.112 80.0859 425.368 80.3673C425.625 80.6488 425.819 80.9818 425.936 81.344C426.054 81.7061 426.094 82.0893 426.052 82.4679L412.056 242.88C411.773 245.685 410.473 248.289 408.402 250.202C406.331 252.114 403.631 253.203 400.813 253.263Z" fill="white"/>
<path d="M159.046 71.5079C157.134 71.5405 155.238 71.1662 153.482 70.4096C151.726 69.6531 150.151 68.5318 148.862 67.12C147.573 65.7083 146.599 64.0385 146.004 62.2214C145.41 60.4044 145.209 58.4817 145.414 56.5809C145.83 52.5469 147.705 48.8037 150.687 46.0549C153.669 43.3061 157.552 41.7411 161.606 41.6539C163.517 41.6211 165.414 41.9955 167.169 42.7521C168.924 43.5087 170.499 44.6302 171.787 46.0422C173.075 47.4541 174.049 49.1241 174.642 50.9411C175.235 52.7582 175.435 54.6807 175.228 56.5809H169.156C169.278 55.4525 169.159 54.311 168.806 53.2323C168.453 52.1536 167.874 51.1624 167.108 50.3247C166.342 49.487 165.407 48.822 164.364 48.3739C163.321 47.9259 162.195 47.705 161.06 47.7259C158.649 47.7701 156.339 48.6953 154.564 50.3266C152.789 51.958 151.672 54.1828 151.426 56.5809C151.303 57.7093 151.423 58.8509 151.776 59.9296C152.129 61.0083 152.708 61.9994 153.473 62.8371C154.239 63.6748 155.175 64.3398 156.218 64.7879C157.26 65.236 158.387 65.4569 159.522 65.4359L159.046 71.5079Z" fill="#263238"/>
<path d="M219.108 71.5079C217.193 71.5464 215.292 71.1763 213.531 70.4223C211.771 69.6684 210.191 68.5479 208.897 67.1355C207.604 65.7231 206.626 64.0512 206.029 62.2313C205.432 60.4114 205.23 58.4851 205.436 56.5809C205.852 52.5469 207.727 48.8037 210.709 46.0549C213.69 43.3061 217.574 41.7411 221.628 41.6539C223.539 41.6211 225.435 41.9955 227.191 42.7521C228.946 43.5087 230.52 44.6302 231.809 46.0422C233.097 47.4541 234.07 49.1241 234.664 50.9411C235.257 52.7582 235.457 54.6807 235.25 56.5809H229.178C229.3 55.4525 229.18 54.311 228.827 53.2323C228.474 52.1536 227.896 51.1624 227.13 50.3247C226.364 49.487 225.428 48.822 224.385 48.3739C223.343 47.9259 222.216 47.705 221.082 47.7259C218.671 47.7701 216.36 48.6953 214.585 50.3266C212.81 51.958 211.694 54.1828 211.447 56.5809C211.327 57.709 211.447 58.8499 211.801 59.9279C212.155 61.0058 212.733 61.9963 213.499 62.8336C214.265 63.671 215.199 64.336 216.241 64.7846C217.283 65.2333 218.409 65.4553 219.543 65.4359L219.108 71.5079Z" fill="#263238"/>
<path d="M279.17 71.5079C277.26 71.5391 275.364 71.1636 273.61 70.4065C271.855 69.6493 270.281 68.5278 268.993 67.1162C267.705 65.7046 266.732 64.0353 266.138 62.219C265.544 60.4027 265.343 58.4808 265.549 56.5809C265.961 52.5452 267.834 48.7995 270.817 46.0499C273.8 43.3003 277.685 41.7367 281.741 41.6539C283.652 41.6211 285.548 41.9955 287.304 42.7521C289.059 43.5087 290.633 44.6302 291.922 46.0422C293.21 47.4541 294.183 49.1241 294.776 50.9411C295.37 52.7582 295.569 54.6807 295.362 56.5809H289.29C289.414 55.4522 289.296 54.31 288.944 53.2305C288.591 52.1511 288.013 51.1593 287.246 50.3212C286.48 49.4831 285.544 48.8182 284.5 48.3706C283.457 47.9231 282.33 47.7033 281.194 47.7259C278.785 47.7704 276.475 48.6959 274.702 50.3274C272.929 51.959 271.815 54.1837 271.57 56.5809C271.448 57.7093 271.567 58.8509 271.92 59.9296C272.273 61.0083 272.852 61.9995 273.618 62.8371C274.384 63.6748 275.319 64.3398 276.362 64.7879C277.405 65.236 278.531 65.4569 279.666 65.4359L279.17 71.5079Z" fill="#263238"/>
<path d="M339.233 71.5079C337.322 71.5391 335.426 71.1636 333.672 70.4065C331.917 69.6493 330.344 68.5278 329.056 67.1162C327.767 65.7046 326.794 64.0353 326.2 62.219C325.606 60.4027 325.406 58.4808 325.611 56.5809C326.025 52.5461 327.899 48.8016 330.881 46.0524C333.864 43.3032 337.748 41.7389 341.803 41.6539C343.715 41.6213 345.611 41.9957 347.367 42.7522C349.123 43.5087 350.697 44.6301 351.987 46.0418C353.276 47.4535 354.25 49.1234 354.845 50.9404C355.439 52.7575 355.64 54.6802 355.435 56.5809H349.363C349.485 55.4525 349.366 54.311 349.013 53.2323C348.659 52.1536 348.081 51.1624 347.315 50.3247C346.549 49.487 345.613 48.822 344.571 48.3739C343.528 47.9259 342.401 47.705 341.267 47.7259C338.857 47.7704 336.548 48.6959 334.775 50.3275C333.001 51.959 331.887 54.1837 331.643 56.5809C331.52 57.7094 331.64 58.8509 331.993 59.9296C332.346 61.0083 332.924 61.9995 333.69 62.8371C334.456 63.6748 335.392 64.3398 336.435 64.7879C337.477 65.236 338.604 65.4569 339.739 65.4359L339.233 71.5079Z" fill="#263238"/>
<path d="M399.295 71.5079C397.384 71.5391 395.488 71.1636 393.734 70.4065C391.979 69.6493 390.406 68.5278 389.118 67.1162C387.83 65.7046 386.856 64.0353 386.262 62.219C385.669 60.4027 385.468 58.4808 385.673 56.5809C386.087 52.5461 387.961 48.8016 390.944 46.0524C393.926 43.3032 397.81 41.7389 401.865 41.6539C403.777 41.6213 405.673 41.9957 407.429 42.7522C409.185 43.5087 410.76 44.6301 412.049 46.0418C413.338 47.4535 414.312 49.1234 414.907 50.9404C415.501 52.7575 415.702 54.6802 415.497 56.5809H409.425C409.547 55.4525 409.428 54.311 409.075 53.2323C408.722 52.1536 408.143 51.1624 407.377 50.3247C406.611 49.487 405.676 48.822 404.633 48.3739C403.59 47.9259 402.464 47.705 401.329 47.7259C398.92 47.7726 396.612 48.6988 394.839 50.33C393.066 51.9611 391.951 54.1845 391.705 56.5809C391.582 57.7094 391.702 58.8509 392.055 59.9296C392.408 61.0083 392.987 61.9995 393.753 62.8371C394.518 63.6748 395.454 64.3398 396.497 64.7879C397.54 65.236 398.666 65.4569 399.801 65.4359L399.295 71.5079Z" fill="#263238"/>
<path d="M400.084 245.987H126.166C126.101 245.989 126.037 245.977 125.977 245.951C125.917 245.926 125.864 245.888 125.821 245.84C125.777 245.791 125.745 245.734 125.726 245.672C125.707 245.61 125.702 245.545 125.711 245.481L139.363 88.9649C139.375 88.828 139.438 88.7005 139.539 88.6071C139.64 88.5136 139.771 88.4608 139.909 88.4589H413.817C413.882 88.4571 413.947 88.4692 414.007 88.4946C414.067 88.5199 414.121 88.5578 414.165 88.6058C414.209 88.6538 414.242 88.7106 414.263 88.7726C414.283 88.8346 414.29 88.9001 414.282 88.9649L400.631 245.481C400.618 245.618 400.555 245.745 400.454 245.839C400.353 245.932 400.222 245.985 400.084 245.987ZM126.763 244.975H399.659L413.23 89.4709H140.334L126.763 244.975Z" fill="#E0E0E0"/>
<path d="M402.776 214.686H128.898C128.834 214.686 128.77 214.673 128.712 214.647C128.653 214.621 128.6 214.583 128.557 214.535C128.514 214.487 128.482 214.431 128.462 214.37C128.442 214.308 128.436 214.244 128.443 214.18C128.453 214.042 128.515 213.913 128.617 213.819C128.718 213.725 128.851 213.673 128.99 213.674H402.897C402.963 213.672 403.027 213.684 403.087 213.709C403.148 213.735 403.201 213.773 403.246 213.821C403.29 213.869 403.323 213.925 403.343 213.987C403.364 214.049 403.37 214.115 403.363 214.18C403.345 214.322 403.276 214.452 403.167 214.546C403.059 214.639 402.919 214.689 402.776 214.686Z" fill="#E0E0E0"/>
<path d="M405.539 183.385H131.631C131.566 183.385 131.502 183.372 131.443 183.346C131.384 183.32 131.33 183.282 131.286 183.234C131.243 183.187 131.209 183.13 131.188 183.069C131.168 183.008 131.16 182.943 131.165 182.879C131.18 182.741 131.245 182.613 131.348 182.52C131.45 182.427 131.583 182.374 131.722 182.373H405.63C405.695 182.371 405.76 182.383 405.82 182.408C405.88 182.433 405.934 182.471 405.978 182.519C406.022 182.567 406.055 182.624 406.076 182.686C406.096 182.748 406.103 182.814 406.095 182.879C406.078 183.016 406.013 183.142 405.911 183.235C405.809 183.328 405.677 183.381 405.539 183.385Z" fill="#E0E0E0"/>
<path d="M408.271 152.073H134.363C134.298 152.075 134.233 152.063 134.173 152.038C134.113 152.012 134.059 151.974 134.015 151.926C133.971 151.878 133.938 151.821 133.917 151.76C133.897 151.698 133.89 151.632 133.898 151.567C133.915 151.43 133.98 151.304 134.082 151.211C134.184 151.118 134.316 151.065 134.454 151.061H408.362C408.427 151.061 408.49 151.074 408.549 151.1C408.608 151.126 408.661 151.164 408.704 151.212C408.747 151.26 408.779 151.316 408.799 151.377C408.818 151.439 408.825 151.503 408.818 151.567C408.807 151.705 408.745 151.834 408.644 151.928C408.543 152.022 408.409 152.074 408.271 152.073Z" fill="#E0E0E0"/>
<path d="M411.004 120.772H137.096C137.03 120.774 136.966 120.762 136.906 120.736C136.846 120.711 136.792 120.673 136.748 120.625C136.703 120.577 136.67 120.52 136.65 120.458C136.63 120.396 136.623 120.331 136.63 120.266C136.643 120.129 136.705 120.002 136.806 119.908C136.907 119.815 137.039 119.762 137.177 119.76H411.095C411.159 119.758 411.224 119.77 411.284 119.795C411.343 119.821 411.397 119.859 411.44 119.907C411.483 119.955 411.516 120.013 411.535 120.074C411.554 120.136 411.559 120.202 411.55 120.266C411.54 120.404 411.478 120.533 411.376 120.627C411.275 120.72 411.142 120.772 411.004 120.772Z" fill="#E0E0E0"/>
<path d="M365.838 245.987C365.773 245.989 365.709 245.977 365.649 245.951C365.589 245.926 365.536 245.888 365.493 245.84C365.449 245.791 365.417 245.734 365.398 245.672C365.379 245.61 365.374 245.545 365.383 245.481L379.034 88.9649C379.047 88.828 379.11 88.7005 379.211 88.6071C379.312 88.5136 379.443 88.4608 379.581 88.4589C379.646 88.4571 379.711 88.4692 379.771 88.4946C379.831 88.5199 379.885 88.5578 379.929 88.6058C379.973 88.6538 380.007 88.7106 380.027 88.7726C380.047 88.8346 380.054 88.9001 380.046 88.9649L366.395 245.481C366.38 245.619 366.315 245.746 366.212 245.839C366.11 245.933 365.977 245.985 365.838 245.987Z" fill="#E0E0E0"/>
<path d="M331.602 245.987C331.537 245.989 331.472 245.977 331.412 245.951C331.352 245.926 331.298 245.888 331.254 245.84C331.21 245.792 331.176 245.735 331.156 245.673C331.136 245.611 331.129 245.546 331.137 245.481L344.788 88.9649C344.803 88.8271 344.868 88.6995 344.971 88.6063C345.073 88.513 345.206 88.4606 345.345 88.4589C345.41 88.4568 345.474 88.4689 345.534 88.4943C345.594 88.5198 345.647 88.5579 345.69 88.6061C345.734 88.6543 345.766 88.7114 345.785 88.7733C345.804 88.8353 345.809 88.9007 345.8 88.9649L332.149 245.481C332.138 245.619 332.076 245.747 331.975 245.841C331.873 245.935 331.74 245.987 331.602 245.987Z" fill="#E0E0E0"/>
<path d="M297.366 245.987C297.301 245.989 297.236 245.977 297.176 245.951C297.116 245.926 297.062 245.888 297.018 245.84C296.974 245.792 296.941 245.735 296.92 245.673C296.9 245.611 296.893 245.546 296.901 245.481L310.552 88.9649C310.567 88.8271 310.632 88.6995 310.735 88.6063C310.837 88.513 310.97 88.4606 311.109 88.4589C311.174 88.4568 311.238 88.4689 311.298 88.4943C311.358 88.5198 311.411 88.5579 311.454 88.6061C311.498 88.6543 311.53 88.7114 311.549 88.7733C311.568 88.8353 311.573 88.9007 311.564 88.9649L297.913 245.481C297.9 245.618 297.837 245.745 297.736 245.839C297.635 245.932 297.504 245.985 297.366 245.987Z" fill="#E0E0E0"/>
<path d="M263.12 245.987C263.055 245.989 262.99 245.977 262.93 245.951C262.87 245.926 262.816 245.888 262.772 245.84C262.728 245.792 262.694 245.735 262.674 245.673C262.654 245.611 262.647 245.546 262.654 245.481L276.276 88.9649C276.288 88.828 276.351 88.7005 276.452 88.6071C276.553 88.5136 276.685 88.4608 276.822 88.4589C276.888 88.4571 276.952 88.4692 277.012 88.4946C277.073 88.5199 277.126 88.5578 277.171 88.6058C277.215 88.6538 277.248 88.7106 277.268 88.7726C277.289 88.8346 277.295 88.9001 277.288 88.9649L263.677 245.481C263.664 245.619 263.6 245.748 263.497 245.842C263.394 245.936 263.259 245.987 263.12 245.987Z" fill="#E0E0E0"/>
<path d="M228.884 245.987C228.819 245.989 228.755 245.977 228.695 245.951C228.635 245.926 228.582 245.888 228.539 245.84C228.495 245.791 228.463 245.734 228.444 245.672C228.425 245.61 228.42 245.545 228.429 245.481L242.081 88.9649C242.091 88.8271 242.153 88.6983 242.254 88.6044C242.356 88.5105 242.489 88.4585 242.627 88.4589C242.692 88.4571 242.757 88.4692 242.817 88.4946C242.877 88.5199 242.931 88.5578 242.975 88.6058C243.019 88.6538 243.053 88.7106 243.073 88.7726C243.093 88.8346 243.1 88.9001 243.093 88.9649L229.441 245.481C229.426 245.619 229.361 245.746 229.258 245.839C229.156 245.933 229.023 245.985 228.884 245.987Z" fill="#E0E0E0"/>
<path d="M194.648 245.987C194.583 245.989 194.518 245.977 194.458 245.951C194.398 245.926 194.344 245.888 194.3 245.84C194.256 245.792 194.223 245.735 194.202 245.673C194.182 245.611 194.175 245.546 194.183 245.481L207.834 88.9649C207.849 88.8271 207.914 88.6995 208.017 88.6063C208.119 88.513 208.252 88.4606 208.391 88.4589C208.456 88.4568 208.52 88.4689 208.58 88.4943C208.64 88.5198 208.693 88.5579 208.736 88.6061C208.78 88.6543 208.812 88.7114 208.831 88.7733C208.85 88.8353 208.855 88.9007 208.846 88.9649L195.195 245.481C195.184 245.619 195.122 245.747 195.021 245.841C194.919 245.935 194.786 245.987 194.648 245.987Z" fill="#E0E0E0"/>
<path d="M160.412 245.987C160.347 245.989 160.282 245.977 160.222 245.951C160.162 245.926 160.108 245.888 160.064 245.84C160.02 245.792 159.987 245.735 159.966 245.673C159.946 245.611 159.939 245.546 159.947 245.481L173.598 88.9649C173.613 88.8271 173.678 88.6995 173.781 88.6063C173.883 88.513 174.016 88.4606 174.155 88.4589C174.22 88.4568 174.284 88.4689 174.344 88.4943C174.404 88.5198 174.457 88.5579 174.5 88.6061C174.544 88.6543 174.576 88.7114 174.595 88.7733C174.614 88.8353 174.619 88.9007 174.61 88.9649L160.959 245.481C160.946 245.618 160.883 245.745 160.782 245.839C160.682 245.932 160.55 245.985 160.412 245.987Z" fill="#E0E0E0"/>
<path d="M299.218 148.44H278.3C277.886 148.447 277.475 148.366 277.095 148.201C276.715 148.037 276.374 147.793 276.095 147.487C275.817 147.18 275.606 146.818 275.479 146.424C275.351 146.03 275.309 145.613 275.355 145.202L276.974 126.632C277.061 125.755 277.466 124.941 278.114 124.344C278.761 123.747 279.605 123.409 280.486 123.393H301.404C301.819 123.385 302.231 123.465 302.612 123.629C302.994 123.793 303.336 124.036 303.615 124.343C303.895 124.649 304.106 125.012 304.235 125.407C304.363 125.801 304.405 126.219 304.359 126.632L302.74 145.202C302.653 146.08 302.246 146.895 301.596 147.492C300.947 148.09 300.1 148.427 299.218 148.44Z" fill="#407BFF"/>
<path opacity="0.6" d="M299.218 148.44H278.3C277.886 148.447 277.475 148.366 277.095 148.201C276.715 148.037 276.374 147.793 276.095 147.487C275.817 147.18 275.606 146.818 275.479 146.424C275.351 146.03 275.309 145.613 275.355 145.202L276.974 126.632C277.061 125.755 277.466 124.941 278.114 124.344C278.761 123.747 279.605 123.409 280.486 123.393H301.404C301.819 123.385 302.231 123.465 302.612 123.629C302.994 123.793 303.336 124.036 303.615 124.343C303.895 124.649 304.106 125.012 304.235 125.407C304.363 125.801 304.405 126.219 304.359 126.632L302.74 145.202C302.653 146.08 302.246 146.895 301.596 147.492C300.947 148.09 300.1 148.427 299.218 148.44Z" fill="white"/>
<path d="M445.169 148.44H423.178L425.354 123.393H447.355L439.087 135.922L445.169 148.44Z" fill="white"/>
<path d="M445.988 148.946H422.621L424.898 122.887H448.316L439.724 135.922L445.988 148.946ZM423.724 147.934H444.339L438.5 135.922L446.434 123.899H425.819L423.724 147.934Z" fill="#407BFF"/>
<path d="M364.765 179.741H343.847C343.433 179.749 343.022 179.669 342.642 179.506C342.261 179.343 341.919 179.101 341.64 178.795C341.36 178.49 341.149 178.128 341.02 177.735C340.891 177.341 340.848 176.925 340.892 176.513L342.511 157.933C342.603 157.057 343.011 156.246 343.66 155.651C344.309 155.056 345.153 154.719 346.033 154.704H366.951C367.365 154.698 367.775 154.779 368.155 154.943C368.535 155.107 368.875 155.349 369.155 155.654C369.434 155.959 369.645 156.32 369.775 156.713C369.904 157.106 369.949 157.521 369.906 157.933L368.287 176.513C368.196 177.388 367.787 178.2 367.138 178.795C366.489 179.39 365.645 179.726 364.765 179.741Z" fill="#407BFF"/>
<path opacity="0.4" d="M364.765 179.741H343.847C343.433 179.749 343.022 179.669 342.642 179.506C342.261 179.343 341.919 179.101 341.64 178.795C341.36 178.49 341.149 178.128 341.02 177.735C340.891 177.341 340.848 176.925 340.892 176.513L342.511 157.933C342.603 157.057 343.011 156.246 343.66 155.651C344.309 155.056 345.153 154.719 346.033 154.704H366.951C367.365 154.698 367.775 154.779 368.155 154.943C368.535 155.107 368.875 155.349 369.155 155.654C369.434 155.959 369.645 156.32 369.775 156.713C369.904 157.106 369.949 157.521 369.906 157.933L368.287 176.513C368.196 177.388 367.787 178.2 367.138 178.795C366.489 179.39 365.645 179.726 364.765 179.741Z" fill="white"/>
<path d="M404.851 117.139H349.312C348.897 117.147 348.485 117.067 348.104 116.903C347.722 116.739 347.38 116.496 347.101 116.19C346.821 115.883 346.61 115.52 346.481 115.125C346.353 114.731 346.311 114.313 346.357 113.901L347.976 95.3304C348.063 94.454 348.468 93.64 349.116 93.043C349.763 92.446 350.607 92.1076 351.488 92.092H407.037C407.451 92.0853 407.862 92.1668 408.243 92.3311C408.623 92.4954 408.965 92.7387 409.244 93.0449C409.524 93.3511 409.735 93.7133 409.864 94.1073C409.992 94.5013 410.036 94.9182 409.992 95.3304L408.372 113.901C408.285 114.779 407.878 115.594 407.229 116.191C406.579 116.789 405.733 117.126 404.851 117.139Z" fill="#407BFF"/>
<path d="M183.293 144.21C174.853 144.21 167.82 141.225 162.831 135.507C156.425 128.15 155.463 119.021 160.311 111.674C167.506 100.795 186.259 94.9964 198.595 96.6055C198.659 96.6137 198.722 96.6354 198.777 96.6691C198.833 96.7028 198.881 96.7479 198.918 96.8013C198.955 96.8547 198.981 96.9153 198.993 96.9792C199.005 97.0431 199.004 97.1088 198.99 97.1722C198.958 97.3061 198.88 97.424 198.768 97.504C198.656 97.5841 198.519 97.6208 198.382 97.6074C186.35 96.0388 168.113 101.655 161.151 112.18C155.666 120.479 158.833 129.303 163.63 134.809C170.32 142.479 179.438 143.562 185.894 143.107C198.231 142.247 211.741 135.193 219.523 125.559C221.699 122.867 225.038 117.696 222.994 113.415C219.958 107.009 209.838 107.454 201.398 108.547C201.335 108.556 201.27 108.551 201.208 108.533C201.147 108.515 201.089 108.485 201.04 108.444C200.991 108.404 200.95 108.353 200.921 108.296C200.892 108.239 200.876 108.176 200.872 108.112C200.868 107.974 200.916 107.84 201.006 107.735C201.095 107.63 201.221 107.563 201.358 107.545C207.005 106.806 220.221 105.096 223.915 112.929C226.202 117.746 222.62 123.312 220.292 126.207C212.328 136.063 198.494 143.289 185.884 144.159C185.014 144.18 184.184 144.21 183.293 144.21Z" fill="#407BFF"/>
<path d="M352.176 174.165H352.095C351.937 174.154 351.784 174.102 351.653 174.013C351.521 173.924 351.415 173.802 351.346 173.659C350.303 171.273 348.87 169.077 347.106 167.162C346.907 166.965 346.795 166.697 346.794 166.417C346.793 166.137 346.904 165.868 347.101 165.669C347.298 165.471 347.566 165.359 347.846 165.358C348.126 165.357 348.395 165.467 348.594 165.664C350.216 167.361 351.559 169.304 352.571 171.423C356.048 167.852 359.815 164.575 363.834 161.627C364.043 161.464 364.308 161.39 364.571 161.42C364.834 161.451 365.074 161.583 365.241 161.788C365.318 161.9 365.372 162.026 365.4 162.159C365.428 162.292 365.428 162.429 365.402 162.562C365.375 162.695 365.322 162.822 365.246 162.934C365.17 163.046 365.072 163.142 364.958 163.215C360.646 166.367 356.638 169.915 352.986 173.811C352.882 173.923 352.757 174.012 352.618 174.073C352.479 174.134 352.328 174.165 352.176 174.165Z" fill="white"/>
<path d="M314.904 241.19C313.449 241.214 312.006 240.929 310.669 240.352C309.333 239.776 308.135 238.922 307.154 237.848C306.173 236.773 305.432 235.502 304.979 234.119C304.527 232.735 304.374 231.272 304.531 229.825C304.847 226.749 306.279 223.896 308.555 221.804C310.832 219.712 313.796 218.526 316.888 218.471C318.342 218.445 319.785 218.729 321.122 219.304C322.458 219.879 323.656 220.732 324.637 221.806C325.619 222.88 326.36 224.151 326.812 225.533C327.264 226.916 327.417 228.379 327.261 229.825C326.945 232.902 325.513 235.757 323.237 237.85C320.961 239.944 317.996 241.132 314.904 241.19ZM316.756 220.495C314.222 220.55 311.796 221.529 309.932 223.247C308.069 224.965 306.897 227.304 306.636 229.825C306.507 231.014 306.632 232.217 307.003 233.353C307.374 234.49 307.983 235.535 308.789 236.419C309.595 237.302 310.579 238.004 311.677 238.478C312.775 238.951 313.961 239.186 315.157 239.166C317.692 239.108 320.118 238.127 321.982 236.407C323.845 234.688 325.017 232.347 325.277 229.825C325.403 228.638 325.276 227.437 324.903 226.302C324.531 225.167 323.922 224.124 323.116 223.242C322.311 222.36 321.328 221.659 320.231 221.186C319.135 220.712 317.95 220.476 316.756 220.495Z" fill="#407BFF"/>
<path d="M217.58 178.466C216.125 178.49 214.682 178.205 213.345 177.629C212.009 177.052 210.811 176.199 209.83 175.124C208.849 174.049 208.108 172.778 207.655 171.395C207.203 170.012 207.05 168.548 207.207 167.101C207.524 164.018 208.961 161.158 211.246 159.063C213.531 156.968 216.505 155.785 219.604 155.737C221.059 155.712 222.502 155.998 223.839 156.574C225.175 157.15 226.373 158.004 227.354 159.079C228.335 160.154 229.076 161.425 229.529 162.808C229.981 164.191 230.134 165.655 229.977 167.101C229.658 170.184 228.22 173.043 225.936 175.137C223.652 177.231 220.679 178.416 217.58 178.466ZM219.381 157.761C216.846 157.817 214.418 158.797 212.554 160.517C210.691 162.237 209.52 164.579 209.261 167.101C209.132 168.29 209.257 169.493 209.628 170.63C209.999 171.767 210.608 172.811 211.414 173.695C212.22 174.578 213.205 175.28 214.303 175.754C215.401 176.227 216.587 176.462 217.782 176.442C220.317 176.384 222.744 175.403 224.607 173.684C226.47 171.964 227.642 169.624 227.902 167.101C228.03 165.915 227.904 164.714 227.534 163.58C227.163 162.445 226.556 161.402 225.753 160.519C224.949 159.637 223.968 158.934 222.873 158.459C221.778 157.983 220.595 157.745 219.402 157.761H219.381Z" fill="#407BFF"/>
<path opacity="0.1" d="M237.354 205.679H132.208C131.237 205.693 130.274 205.501 129.383 205.115C128.492 204.73 127.693 204.159 127.038 203.442C126.384 202.724 125.89 201.876 125.587 200.953C125.285 200.031 125.182 199.054 125.286 198.089C125.5 196.036 126.456 194.132 127.975 192.735C129.493 191.337 131.47 190.542 133.533 190.499H238.68C239.651 190.485 240.614 190.677 241.505 191.063C242.396 191.448 243.195 192.019 243.849 192.736C244.504 193.453 244.998 194.302 245.3 195.224C245.603 196.147 245.705 197.123 245.602 198.089C245.388 200.142 244.432 202.046 242.913 203.443C241.395 204.841 239.418 205.636 237.354 205.679Z" fill="black"/>
<path d="M97.5467 181.563L101.493 183.253L96.2007 189.74C95.2759 188.129 94.5553 186.408 94.0553 184.619C93.9808 184.357 93.96 184.083 93.994 183.813C94.0279 183.543 94.1161 183.282 94.2531 183.047C94.3901 182.812 94.5731 182.607 94.7913 182.444C95.0094 182.281 95.2582 182.164 95.5227 182.099L97.5467 181.563Z" fill="#FF8B7B"/>
<path d="M103.305 190.256L100.937 192.887C100.758 193.087 100.536 193.243 100.287 193.344C100.039 193.445 99.7709 193.488 99.5034 193.469C99.236 193.45 98.9763 193.371 98.7442 193.237C98.512 193.103 98.3136 192.917 98.164 192.695L96.2007 189.78L101.493 183.293L103.629 188.353C103.767 188.667 103.81 189.015 103.753 189.353C103.695 189.692 103.539 190.005 103.305 190.256Z" fill="#FF8B7B"/>
<path d="M242.516 203.129L105.643 192.28C104.676 192.216 103.733 191.948 102.877 191.494C102.021 191.04 101.271 190.41 100.675 189.645C100.08 188.881 99.6528 187.999 99.4224 187.058C99.1919 186.117 99.1631 185.137 99.3379 184.184C99.7141 182.155 100.818 180.332 102.443 179.06C104.068 177.787 106.102 177.151 108.163 177.272L245.036 188.111C246.003 188.173 246.946 188.44 247.803 188.893C248.66 189.347 249.411 189.977 250.007 190.742C250.603 191.507 251.03 192.389 251.259 193.331C251.489 194.273 251.517 195.253 251.34 196.207C250.964 198.237 249.86 200.06 248.236 201.335C246.611 202.609 244.577 203.247 242.516 203.129Z" fill="#407BFF"/>
<path d="M145.941 139.261C147.651 143.117 149.402 147.074 151.173 150.92C152.944 154.765 154.775 158.671 156.739 162.052C157.155 162.756 157.618 163.433 158.125 164.076C158.732 164.794 159.41 165.533 160.098 166.292C161.505 167.8 163.013 169.328 164.521 170.826C167.557 173.862 170.593 176.898 173.629 180.065L170.593 184.022C166.757 181.812 163.041 179.4 159.461 176.796C157.659 175.491 155.899 174.135 154.138 172.657C153.257 171.919 152.387 171.129 151.496 170.269C150.566 169.297 149.717 168.251 148.956 167.142C146.422 163.346 144.147 159.383 142.146 155.281C140.172 151.284 138.361 147.307 136.671 143.137L145.941 139.261Z" fill="#FF8B7B"/>
<path d="M112.474 138.644C110.176 142.399 107.818 146.173 105.461 149.908L98.4271 161.121L97.5669 162.517L97.4657 162.699V162.78V162.841C97.4151 162.918 97.3711 162.999 97.3342 163.084C97.0988 163.763 96.9559 164.471 96.9091 165.189C96.7936 167.147 96.8512 169.111 97.0812 171.058C97.5163 175.187 98.336 179.549 99.2064 183.769L94.5107 185.51C92.3675 181.356 90.6713 176.987 89.4507 172.475C88.7853 170.053 88.3882 167.566 88.2666 165.057C88.196 163.54 88.339 162.021 88.6917 160.544C88.8334 160.098 88.9447 159.694 89.137 159.218L89.4507 158.53L89.5822 158.257L89.6733 158.074L90.4526 156.546C92.4766 152.498 94.7131 148.572 96.9698 144.686C99.2266 140.8 101.574 136.984 104.054 133.199L112.474 138.644Z" fill="#FF8B7B"/>
<path d="M139.251 110.622C139.069 111.118 139.18 111.634 139.504 111.775C139.828 111.917 140.243 111.613 140.435 111.107C140.628 110.601 140.506 110.095 140.182 109.954C139.858 109.812 139.443 110.116 139.251 110.622Z" fill="#263238"/>
<path d="M139.13 111.624C139.152 113.414 139.41 115.194 139.899 116.916C139.462 117.02 139.008 117.026 138.569 116.933C138.129 116.841 137.716 116.652 137.359 116.38L139.13 111.624Z" fill="#FF5652"/>
<path d="M141.103 107.667C141.038 107.655 140.978 107.623 140.931 107.576C140.628 107.327 140.269 107.154 139.886 107.071C139.502 106.988 139.104 106.998 138.725 107.1C138.684 107.11 138.642 107.113 138.601 107.107C138.559 107.101 138.519 107.086 138.484 107.065C138.448 107.043 138.417 107.014 138.392 106.98C138.367 106.947 138.35 106.908 138.34 106.867C138.322 106.787 138.336 106.702 138.38 106.632C138.423 106.562 138.493 106.512 138.573 106.493C139.055 106.364 139.56 106.354 140.047 106.463C140.533 106.572 140.986 106.798 141.366 107.12C141.396 107.149 141.419 107.184 141.435 107.222C141.451 107.26 141.459 107.301 141.459 107.343C141.459 107.384 141.451 107.425 141.435 107.463C141.419 107.502 141.396 107.536 141.366 107.565C141.333 107.602 141.292 107.63 141.247 107.647C141.201 107.665 141.152 107.672 141.103 107.667Z" fill="#263238"/>
<path d="M120.802 111.613C120.165 117.058 121.207 123.919 117.483 126.652C117.483 126.652 118.262 131.712 127.219 133.098C137.065 134.556 132.461 128.878 132.461 128.878C127.229 126.783 127.805 122.806 129.151 119.173L120.802 111.613Z" fill="#FF8B7B"/>
<path d="M114.356 130.072C114.224 127.563 114.356 123.778 115.914 123.231C117.615 122.634 127.664 123.434 132.704 127.998C131.55 130.274 130.96 132.793 130.983 135.345L114.356 130.072Z" fill="#263238"/>
<path d="M83.5608 355.789C82.6497 355.714 81.7624 355.459 80.9499 355.04C80.9216 355.026 80.8979 355.005 80.8818 354.978C80.8656 354.951 80.8576 354.92 80.8588 354.888C80.8611 354.859 80.8719 354.831 80.8898 354.807C80.9078 354.784 80.9322 354.766 80.96 354.757C81.0511 354.757 83.0751 353.947 83.996 354.382C84.0952 354.43 84.1833 354.497 84.2548 354.581C84.3263 354.665 84.3794 354.762 84.4109 354.868C84.4675 354.991 84.4833 355.129 84.456 355.262C84.4287 355.395 84.3597 355.516 84.2591 355.607C84.0567 355.751 83.8081 355.816 83.5608 355.789ZM81.4255 354.918C82.3566 355.333 83.6823 355.657 84.0365 355.364C84.0365 355.364 84.1782 355.252 84.0365 354.959C84.0167 354.895 83.984 354.836 83.9405 354.786C83.897 354.735 83.8435 354.694 83.7835 354.665C82.9894 354.525 82.1717 354.613 81.4255 354.918Z" fill="#407BFF"/>
<path d="M81.0207 355.06C80.9784 355.059 80.9385 355.04 80.9094 355.01C80.895 354.987 80.8874 354.961 80.8874 354.934C80.8874 354.907 80.895 354.88 80.9094 354.858C80.9094 354.777 81.4761 352.935 82.3667 352.5C82.4763 352.45 82.5953 352.424 82.7158 352.424C82.8363 352.424 82.9554 352.45 83.065 352.5C83.1835 352.528 83.2881 352.598 83.3604 352.696C83.4326 352.794 83.4678 352.915 83.4596 353.036C83.4596 353.795 81.8303 354.888 81.1017 355.06H81.0207ZM82.7209 352.722C82.6298 352.723 82.54 352.744 82.4578 352.783C81.8826 353.269 81.4694 353.918 81.2737 354.645C82.0327 354.301 83.0751 353.441 83.1054 352.986C83.1054 352.986 83.1054 352.834 82.9132 352.763C82.8527 352.736 82.7871 352.722 82.7209 352.722Z" fill="#407BFF"/>
<path d="M134.434 358.734C133.755 358.731 133.078 358.667 132.41 358.541C132.381 358.53 132.357 358.511 132.339 358.486C132.322 358.46 132.313 358.43 132.313 358.4C132.313 358.369 132.322 358.339 132.339 358.314C132.357 358.289 132.381 358.269 132.41 358.258C132.744 358.056 135.699 356.366 136.407 357.54C136.479 357.642 136.518 357.764 136.518 357.889C136.518 358.014 136.479 358.136 136.407 358.238C136.104 358.612 135.284 358.734 134.434 358.734ZM132.886 358.309C134.141 358.491 135.831 358.46 136.114 358.056C136.114 358.056 136.205 357.924 136.114 357.701C135.669 357.034 133.867 357.793 132.886 358.309Z" fill="#407BFF"/>
<path d="M132.41 358.552C132.384 358.562 132.355 358.562 132.329 358.552C132.305 358.537 132.286 358.516 132.274 358.491C132.261 358.466 132.256 358.438 132.258 358.41C132.284 357.475 132.611 356.574 133.189 355.839C133.309 355.739 133.448 355.663 133.597 355.616C133.746 355.569 133.904 355.552 134.06 355.566C134.505 355.617 134.636 355.839 134.667 356.022C134.788 356.791 133.28 358.197 132.481 358.562L132.41 358.552ZM133.938 355.85C133.738 355.851 133.544 355.922 133.392 356.052C132.925 356.628 132.649 357.336 132.602 358.076C133.402 357.58 134.434 356.467 134.353 356.001C134.353 356.001 134.353 355.839 134.029 355.809L133.938 355.85Z" fill="#407BFF"/>
<path d="M125.093 358.39H131.752L131.823 342.957H125.154L125.093 358.39Z" fill="#FF8B7B"/>
<path d="M73.4813 353.613L79.7254 355.06L84.9675 339.799L78.7235 338.352L73.4813 353.613Z" fill="#FF8B7B"/>
<path d="M80.6969 354.028L73.4408 352.176C73.3144 352.14 73.1794 352.151 73.0604 352.207C72.9415 352.263 72.8466 352.36 72.7932 352.48L70.2935 357.954C70.233 358.091 70.2034 358.239 70.2069 358.388C70.2103 358.537 70.2467 358.684 70.3135 358.817C70.3802 358.951 70.4756 359.068 70.5929 359.16C70.7102 359.252 70.8464 359.318 70.9918 359.351C73.542 359.948 74.807 360.11 77.9948 360.91C79.9581 361.405 83.9656 362.63 86.6778 363.308C89.39 363.986 90.3109 361.365 89.2483 360.849C84.502 358.491 82.9536 356.507 81.6583 354.655C81.4214 354.34 81.0811 354.118 80.6969 354.028Z" fill="#263238"/>
<path d="M131.681 357.621H124.405C124.274 357.62 124.147 357.666 124.045 357.749C123.944 357.832 123.874 357.947 123.849 358.076L122.766 363.996C122.74 364.143 122.748 364.293 122.787 364.436C122.827 364.58 122.897 364.713 122.994 364.826C123.09 364.939 123.211 365.029 123.346 365.09C123.482 365.152 123.629 365.182 123.778 365.18C126.399 365.18 130.184 364.988 133.483 364.988C137.349 364.988 137.419 365.19 141.943 365.19C144.676 365.19 145.333 362.427 144.18 362.154C138.917 361.021 137.925 360.899 133.311 358.106C132.822 357.798 132.259 357.63 131.681 357.621Z" fill="#263238"/>
<path d="M109.681 126.196C103.345 126.702 94.4095 142.591 94.4095 142.591L105.886 152.984C109.459 148.983 112.711 144.706 115.611 140.192C120.114 132.977 116.157 125.68 109.681 126.196Z" fill="#407BFF"/>
<path opacity="0.6" d="M109.681 126.196C103.345 126.702 94.4095 142.591 94.4095 142.591L105.886 152.984C109.459 148.983 112.711 144.706 115.611 140.192C120.114 132.977 116.157 125.68 109.681 126.196Z" fill="white"/>
<path opacity="0.2" d="M112.919 137.632L105.339 152.468L105.875 152.964C105.875 152.964 108.81 149.756 112.079 145.333L112.919 137.632Z" fill="black"/>
<path d="M141.427 161.819C140.283 169.166 138.472 178.254 135.689 189.446L100.441 184.184C100.765 179.124 106.159 156.567 105.096 132.349C105.059 131.543 105.187 130.737 105.474 129.983C105.761 129.228 106.2 128.54 106.763 127.962C107.327 127.384 108.004 126.928 108.751 126.623C109.498 126.317 110.3 126.169 111.107 126.186C112.848 126.186 114.761 126.318 116.643 126.5C121.677 126.959 126.681 127.702 131.631 128.726C135.025 129.585 138.347 130.705 141.569 132.076C141.569 132.076 144.099 135.79 142.732 151.243C142.459 154.31 142.044 157.801 141.427 161.819Z" fill="#407BFF"/>
<path opacity="0.6" d="M141.427 161.819C140.283 169.166 138.472 178.254 135.689 189.446L100.441 184.184C100.765 179.124 106.159 156.567 105.096 132.349C105.059 131.543 105.187 130.737 105.474 129.983C105.761 129.228 106.2 128.54 106.763 127.962C107.327 127.384 108.004 126.928 108.751 126.623C109.498 126.317 110.3 126.169 111.107 126.186C112.848 126.186 114.761 126.318 116.643 126.5C121.677 126.959 126.681 127.702 131.631 128.726C135.025 129.585 138.347 130.705 141.569 132.076C141.569 132.076 144.099 135.79 142.732 151.243C142.459 154.31 142.044 157.801 141.427 161.819Z" fill="white"/>
<path opacity="0.2" d="M141.427 161.819C138.563 160.007 135.881 151.699 137.086 147.317L142.732 151.264C142.459 154.31 142.044 157.801 141.427 161.819Z" fill="black"/>
<path d="M133.503 136.62C131.681 142.692 142.712 160.574 142.712 160.574L155.868 153.692C153.933 148.088 151.338 142.734 148.137 137.743C142.864 129.981 135.608 129.759 133.503 136.62Z" fill="#407BFF"/>
<path opacity="0.6" d="M133.503 136.62C131.681 142.692 142.712 160.574 142.712 160.574L155.868 153.692C153.933 148.088 151.338 142.734 148.137 137.743C142.864 129.981 135.608 129.759 133.503 136.62Z" fill="white"/>
<path opacity="0.2" d="M131.813 342.967L131.783 350.921H125.124L125.154 342.967H131.813Z" fill="black"/>
<path opacity="0.2" d="M78.7235 338.362L84.9675 339.799L82.2554 347.673L76.0214 346.225L78.7235 338.362Z" fill="black"/>
<path d="M123.11 102.657C121.177 109.003 119.73 112.605 121.632 117.058C122.223 118.516 123.202 119.784 124.464 120.723C125.725 121.663 127.22 122.238 128.786 122.386C130.352 122.534 131.928 122.25 133.344 121.564C134.759 120.878 135.959 119.816 136.812 118.495C140.192 113.435 142.783 103.943 137.733 98.9938C136.674 97.8898 135.341 97.0854 133.87 96.6622C132.4 96.239 130.843 96.212 129.359 96.5839C127.874 96.9557 126.515 97.7133 125.417 98.7799C124.32 99.8464 123.524 101.184 123.11 102.657Z" fill="#FF8B7B"/>
<path d="M133.301 109.63C132.542 112.878 130.568 118.738 125.711 119.416C122.998 119.79 118.485 118.991 118.07 116.805C117.655 114.619 119.335 114.913 118.91 113.121C118.485 111.33 116.269 105.025 118.789 100.613C115.287 100.907 117.685 95.715 123.97 94.541C122.027 93.782 122.958 88.469 132.653 90.999C137.187 92.1628 140.557 93.944 140.961 96.3829C145.09 98.1235 146.183 102.505 143.623 104.104C141.063 105.703 137.359 103.902 137.359 103.902C137.359 103.902 139.11 113.172 133.301 109.63Z" fill="#263238"/>
<path d="M130.659 109.134C130.57 110.591 131.017 112.031 131.914 113.182C133.118 114.72 133.523 114.73 134.019 113.02C134.475 111.482 135.578 108.041 133.969 107.13C132.359 106.22 130.801 107.363 130.659 109.134Z" fill="#FF8B7B"/>
<path d="M123.191 187.584C123.191 187.584 117.716 239.844 114.356 258.91C110.612 279.798 85.7366 346.954 85.7366 346.954L73.876 344.019C79.948 320.743 88.9447 277.399 94.4196 260.802C98.5486 235.573 94.4196 203.857 100.492 184.204L123.191 187.584Z" fill="#263238"/>
<path d="M88.4994 343.068L86.3135 347.349L72.9956 343.999L74.0986 339.951L88.4994 343.068Z" fill="#407BFF"/>
<path opacity="0.2" d="M119.811 207.966C120.188 207.891 120.577 207.891 120.954 207.966C119.203 223.571 116.714 244.398 114.751 256.35C113.111 238.984 111.593 209.585 119.811 207.966Z" fill="black"/>
<path d="M135.689 189.446C135.689 189.446 138.452 245.289 138.857 265.599C139.271 286.73 134.211 349.383 134.211 349.383H122.918C122.918 349.383 118.657 291.284 120.954 262.948C118.232 241.362 112.524 186.036 112.524 186.036L135.689 189.446Z" fill="#263238"/>
<path d="M176.442 179.428C174.606 179.275 172.759 179.538 171.038 180.197L170.218 181.553C170.059 181.821 169.962 182.122 169.935 182.433C169.908 182.744 169.952 183.057 170.063 183.349C170.174 183.641 170.349 183.904 170.576 184.119C170.802 184.333 171.075 184.494 171.372 184.589L175.329 185.854L177.262 186.441C177.669 186.567 178.105 186.561 178.508 186.425C178.911 186.288 179.262 186.028 179.509 185.682L180.338 184.528C180.636 184.121 180.772 183.617 180.717 183.115C180.663 182.613 180.423 182.15 180.045 181.816L178.264 180.207C177.756 179.758 177.117 179.484 176.442 179.428Z" fill="#FF8B7B"/>
<path d="M136.205 344.879L135.75 349.565H122.017L121.491 345.385L136.205 344.879Z" fill="#407BFF"/>
</svg>
