<svg width="122" height="36" viewBox="0 0 122 36" fill="none" xmlns="http://www.w3.org/2000/svg">
<path d="M22.7731 3.59574H23.9716C25.2901 3.59574 26.3688 4.67447 26.3688 5.99291V15.5816H23.9716V9.58866H4.79432V25.1702H12.8934V27.5674H4.79432C3.47588 27.5674 2.39716 26.4887 2.39716 25.1702V5.99291C2.39716 4.67447 3.47588 3.59574 4.79432 3.59574H5.9929V1.19858H8.39007V3.59574H20.3759V1.19858H22.7731V3.59574Z" fill="#4763E4"/>
<g clip-path="url(#clip0_1_158)">
<path d="M32.6186 11.9858H31.42H29.0228H17.037H14.6398H13.4412C12.1228 11.9858 11.0441 13.0646 11.0441 14.383V33.5603C11.0441 34.8788 12.1228 35.9575 13.4412 35.9575H32.6186C33.937 35.9575 35.0157 34.8788 35.0157 33.5603V14.383C35.0157 13.0646 33.937 11.9858 32.6186 11.9858ZM32.6186 33.5603H13.4412V17.9788H32.6186V33.5603Z" fill="#4763E4"/>
</g>
<path d="M32.5415 3.59576C33.8553 3.59576 34.9301 4.67449 34.9301 5.99293V8.86096H32.5415V5.99293L13.4327 5.99293H11.0441C11.0441 4.67449 12.119 3.59576 13.4327 3.59576L32.5415 3.59576Z" fill="#4763E4"/>
<path d="M4.70872 35.9575C3.39028 35.9575 2.31155 34.8788 2.31155 33.5603V30.6923H4.70872V33.5603H23.886H26.2832C26.2832 34.8788 25.2045 35.9575 23.886 35.9575H4.70872Z" fill="#4763E4"/>
<path d="M44.0529 8.1283C45.0906 8.1283 45.8919 8.37487 46.4569 8.868C47.0323 9.35086 47.3199 10.0957 47.3199 11.1025V16.7119H45.6094L45.1316 15.5715H45.07C44.844 15.8694 44.6128 16.116 44.3765 16.3112C44.1402 16.5064 43.868 16.6451 43.5598 16.7273C43.2516 16.8197 42.8766 16.866 42.4348 16.866C41.9725 16.866 41.5564 16.7735 41.1866 16.5886C40.827 16.3934 40.5394 16.1006 40.3236 15.7102C40.1079 15.3095 40 14.8061 40 14.2C40 13.3062 40.2928 12.6487 40.8784 12.2275C41.4743 11.796 42.3475 11.5597 43.4982 11.5186L44.8543 11.4723V11.1025C44.8543 10.6607 44.7567 10.3371 44.5615 10.1316C44.3663 9.92618 44.0992 9.82344 43.7601 9.82344C43.4108 9.82344 43.0461 9.88508 42.666 10.0084C42.2859 10.1214 41.9057 10.2652 41.5256 10.4399L40.7705 8.88341C41.2226 8.64712 41.7208 8.46219 42.2653 8.32864C42.8201 8.19508 43.416 8.1283 44.0529 8.1283ZM44.1454 12.8439C43.5392 12.8644 43.1129 12.998 42.8663 13.2445C42.63 13.4911 42.5119 13.8147 42.5119 14.2154C42.5119 14.5647 42.5941 14.8164 42.7585 14.9705C42.9331 15.1143 43.1591 15.1862 43.4365 15.1862C43.8269 15.1862 44.1608 15.0424 44.4382 14.7548C44.7258 14.4568 44.8697 14.0407 44.8697 13.5065V12.813L44.1454 12.8439Z" fill="#4763E4"/>
<path d="M51.9299 8.14371C52.4539 8.14371 52.8956 8.24645 53.2552 8.45192C53.625 8.65739 53.9281 8.9656 54.1644 9.37654H54.226L54.411 8.29782H56.5222V16.7273C56.5222 17.5286 56.3681 18.2015 56.0599 18.746C55.7619 19.2905 55.3099 19.7015 54.7038 19.9789C54.0976 20.2665 53.3322 20.4104 52.4076 20.4104C51.8118 20.4104 51.2673 20.3744 50.7741 20.3025C50.2913 20.2306 49.8238 20.1021 49.3718 19.9172V18.0834C49.7005 18.2272 50.019 18.3454 50.3272 18.4378C50.6457 18.5406 50.9693 18.6125 51.2981 18.6536C51.6371 18.7049 52.0018 18.7306 52.3922 18.7306C52.9573 18.7306 53.3733 18.5714 53.6404 18.2529C53.9178 17.9344 54.0565 17.4567 54.0565 16.8197V16.6502C54.0565 16.4756 54.0617 16.2958 54.0719 16.1109C54.0925 15.9259 54.113 15.7616 54.1336 15.6177H54.0565C53.8305 16.0595 53.5377 16.378 53.1781 16.5732C52.8288 16.7684 52.3973 16.866 51.8837 16.866C50.9899 16.866 50.2759 16.4859 49.7416 15.7256C49.2177 14.9551 48.9557 13.8866 48.9557 12.5203C48.9557 11.5956 49.079 10.8097 49.3256 10.1625C49.5721 9.50496 49.9163 9.00669 50.358 8.66766C50.8101 8.31836 51.334 8.14371 51.9299 8.14371ZM52.7929 10.0084C52.4949 10.0084 52.2484 10.106 52.0532 10.3012C51.858 10.4861 51.709 10.7686 51.6063 11.1487C51.5138 11.5186 51.4676 11.986 51.4676 12.5511C51.4676 13.3935 51.5755 14.0253 51.7912 14.4465C52.0172 14.8575 52.3614 15.063 52.8237 15.063C53.0703 15.063 53.2809 15.027 53.4555 14.9551C53.6404 14.8729 53.7894 14.7445 53.9024 14.5698C54.0154 14.3849 54.0976 14.1486 54.149 13.861C54.2106 13.5733 54.2415 13.224 54.2415 12.813V12.5357C54.2415 11.9295 54.1952 11.4415 54.1028 11.0717C54.0103 10.7018 53.8562 10.4347 53.6404 10.2703C53.435 10.0957 53.1525 10.0084 52.7929 10.0084Z" fill="#4763E4"/>
<path d="M62.0485 8.14371C62.7985 8.14371 63.4457 8.29268 63.9902 8.59061C64.5347 8.88855 64.9559 9.32004 65.2538 9.88508C65.5518 10.4501 65.7007 11.1436 65.7007 11.9655V13.075H60.6924C60.7129 13.7223 60.8773 14.2308 61.1855 14.6007C61.504 14.9705 61.956 15.1554 62.5416 15.1554C63.0553 15.1554 63.5176 15.1041 63.9285 15.0013C64.3498 14.8883 64.7813 14.7188 65.223 14.4928V16.265C64.8429 16.4704 64.4268 16.6194 63.9748 16.7119C63.533 16.8146 62.9834 16.866 62.3259 16.866C61.5245 16.866 60.8105 16.7119 60.1838 16.4037C59.5674 16.0852 59.0794 15.6075 58.7198 14.9705C58.3705 14.3335 58.1959 13.5322 58.1959 12.5665C58.1959 11.5802 58.3551 10.7635 58.6736 10.1162C59.0024 9.45873 59.4544 8.9656 60.0297 8.63684C60.6153 8.30809 61.2882 8.14371 62.0485 8.14371ZM62.0947 9.77721C61.7249 9.77721 61.4167 9.92104 61.1701 10.2087C60.9235 10.4964 60.7797 10.9433 60.7386 11.5494H63.4354C63.4354 11.2104 63.384 10.9073 63.2813 10.6402C63.1786 10.3731 63.0296 10.1625 62.8344 10.0084C62.6392 9.85426 62.3926 9.77721 62.0947 9.77721Z" fill="#4763E4"/>
<path d="M72.117 8.14371C72.9594 8.14371 73.6375 8.39028 74.1511 8.88341C74.6751 9.36627 74.9371 10.1471 74.9371 11.2258V16.7119H72.4714V11.796C72.4714 11.1898 72.379 10.7378 72.194 10.4399C72.0194 10.1316 71.7369 9.97754 71.3465 9.97754C70.7506 9.97754 70.3499 10.219 70.1445 10.7018C69.939 11.1744 69.8362 11.8576 69.8362 12.7514V16.7119H67.3706V8.29782H69.2352L69.5743 9.37654H69.6821C69.8568 9.08888 70.0623 8.85773 70.2986 8.68307C70.5451 8.49815 70.8225 8.36459 71.1307 8.28241C71.4389 8.18994 71.7677 8.14371 72.117 8.14371Z" fill="#4763E4"/>
<path d="M79.4835 16.866C78.6308 16.866 77.9322 16.5013 77.3877 15.7718C76.8432 15.0321 76.5709 13.9483 76.5709 12.5203C76.5709 11.082 76.8483 9.99295 77.4031 9.25326C77.9579 8.51356 78.677 8.14371 79.5605 8.14371C79.9304 8.14371 80.2489 8.20022 80.516 8.31323C80.7934 8.41596 81.0297 8.55979 81.2249 8.74472C81.4303 8.92964 81.605 9.14025 81.7488 9.37654H81.8105C81.7796 9.21216 81.7488 8.97587 81.718 8.66766C81.6872 8.34918 81.6718 8.02557 81.6718 7.69681V5H84.1374V16.7119H82.2728L81.7642 15.6177H81.6718C81.5382 15.8438 81.3738 16.0544 81.1786 16.2496C80.9834 16.4345 80.7471 16.5834 80.4698 16.6965C80.1924 16.8095 79.8636 16.866 79.4835 16.866ZM80.4235 15.0321C80.9372 15.0321 81.3019 14.8472 81.5177 14.4774C81.7437 14.0972 81.8567 13.5322 81.8567 12.7822V12.5357C81.8567 11.7138 81.7539 11.0871 81.5485 10.6556C81.343 10.2241 80.9577 10.0084 80.3927 10.0084C79.992 10.0084 79.6684 10.2292 79.4218 10.671C79.1856 11.1025 79.0674 11.7292 79.0674 12.5511C79.0674 13.373 79.1856 13.9945 79.4218 14.4157C79.6684 14.8267 80.0023 15.0321 80.4235 15.0321Z" fill="#4763E4"/>
<path d="M89.8024 8.1283C90.84 8.1283 91.6414 8.37487 92.2064 8.868C92.7817 9.35086 93.0694 10.0957 93.0694 11.1025V16.7119H91.3589L90.8811 15.5715H90.8195C90.5935 15.8694 90.3623 16.116 90.126 16.3112C89.8897 16.5064 89.6175 16.6451 89.3093 16.7273C89.0011 16.8197 88.6261 16.866 88.1843 16.866C87.722 16.866 87.3059 16.7735 86.9361 16.5886C86.5765 16.3934 86.2888 16.1006 86.0731 15.7102C85.8574 15.3095 85.7495 14.8061 85.7495 14.2C85.7495 13.3062 86.0423 12.6487 86.6279 12.2275C87.2237 11.796 88.097 11.5597 89.2476 11.5186L90.6037 11.4723V11.1025C90.6037 10.6607 90.5061 10.3371 90.3109 10.1316C90.1158 9.92618 89.8486 9.82344 89.5096 9.82344C89.1603 9.82344 88.7956 9.88508 88.4155 10.0084C88.0354 10.1214 87.6552 10.2652 87.2751 10.4399L86.52 8.88341C86.972 8.64712 87.4703 8.46219 88.0148 8.32864C88.5696 8.19508 89.1654 8.1283 89.8024 8.1283ZM89.8949 12.8439C89.2887 12.8644 88.8624 12.998 88.6158 13.2445C88.3795 13.4911 88.2614 13.8147 88.2614 14.2154C88.2614 14.5647 88.3436 14.8164 88.5079 14.9705C88.6826 15.1143 88.9086 15.1862 89.186 15.1862C89.5764 15.1862 89.9103 15.0424 90.1877 14.7548C90.4753 14.4568 90.6192 14.0407 90.6192 13.5065V12.813L89.8949 12.8439Z" fill="#4763E4"/>
<path d="M99.8677 8.14371C100.71 8.14371 101.388 8.39028 101.902 8.88341C102.426 9.36627 102.688 10.1471 102.688 11.2258V16.7119H100.222V11.796C100.222 11.1898 100.13 10.7378 99.9447 10.4399C99.7701 10.1316 99.4875 9.97754 99.0971 9.97754C98.5013 9.97754 98.1006 10.219 97.8951 10.7018C97.6897 11.1744 97.5869 11.8576 97.5869 12.7514V16.7119H95.1213V8.29782H96.9859L97.3249 9.37654H97.4328C97.6075 9.08888 97.8129 8.85773 98.0492 8.68307C98.2958 8.49815 98.5732 8.36459 98.8814 8.28241C99.1896 8.18994 99.5184 8.14371 99.8677 8.14371Z" fill="#4763E4"/>
<path d="M107.234 16.866C106.381 16.866 105.683 16.5013 105.138 15.7718C104.594 15.0321 104.322 13.9483 104.322 12.5203C104.322 11.082 104.599 9.99295 105.154 9.25326C105.709 8.51356 106.428 8.14371 107.311 8.14371C107.681 8.14371 108 8.20022 108.267 8.31323C108.544 8.41596 108.78 8.55979 108.976 8.74472C109.181 8.92964 109.356 9.14025 109.499 9.37654H109.561C109.53 9.21216 109.499 8.97587 109.469 8.66766C109.438 8.34918 109.422 8.02557 109.422 7.69681V5H111.888V16.7119H110.023L109.515 15.6177H109.422C109.289 15.8438 109.125 16.0544 108.929 16.2496C108.734 16.4345 108.498 16.5834 108.22 16.6965C107.943 16.8095 107.614 16.866 107.234 16.866ZM108.174 15.0321C108.688 15.0321 109.053 14.8472 109.268 14.4774C109.494 14.0972 109.607 13.5322 109.607 12.7822V12.5357C109.607 11.7138 109.505 11.0871 109.299 10.6556C109.094 10.2241 108.708 10.0084 108.143 10.0084C107.743 10.0084 107.419 10.2292 107.173 10.671C106.936 11.1025 106.818 11.7292 106.818 12.5511C106.818 13.373 106.936 13.9945 107.173 14.4157C107.419 14.8267 107.753 15.0321 108.174 15.0321Z" fill="#4763E4"/>
<path d="M121.39 12.4894C121.39 13.188 121.298 13.8096 121.113 14.3541C120.938 14.8986 120.681 15.3609 120.342 15.741C120.003 16.1109 119.587 16.3934 119.094 16.5886C118.611 16.7735 118.067 16.866 117.461 16.866C116.896 16.866 116.372 16.7735 115.889 16.5886C115.406 16.3934 114.99 16.1109 114.641 15.741C114.301 15.3609 114.034 14.8986 113.839 14.3541C113.654 13.8096 113.562 13.188 113.562 12.4894C113.562 11.5545 113.721 10.7686 114.04 10.1316C114.358 9.48441 114.81 8.99128 115.396 8.65225C115.981 8.31323 116.685 8.14371 117.507 8.14371C118.267 8.14371 118.935 8.31323 119.51 8.65225C120.096 8.99128 120.553 9.48441 120.882 10.1316C121.221 10.7686 121.39 11.5545 121.39 12.4894ZM116.074 12.4894C116.074 13.0442 116.12 13.5117 116.212 13.8918C116.315 14.2616 116.469 14.5441 116.675 14.7393C116.89 14.9243 117.163 15.0167 117.491 15.0167C117.83 15.0167 118.098 14.9243 118.293 14.7393C118.498 14.5441 118.647 14.2616 118.74 13.8918C118.832 13.5117 118.878 13.0442 118.878 12.4894C118.878 11.9347 118.832 11.4723 118.74 11.1025C118.647 10.7327 118.493 10.4553 118.277 10.2703C118.072 10.0854 117.805 9.99295 117.476 9.99295C116.973 9.99295 116.613 10.2036 116.397 10.6248C116.182 11.0357 116.074 11.6573 116.074 12.4894Z" fill="#4763E4"/>
<path d="M47.998 23.7082V32.1222H46.1333L45.8097 31.0435H45.671C45.5066 31.3312 45.296 31.5674 45.0392 31.7524C44.7926 31.927 44.5152 32.0554 44.207 32.1376C43.8988 32.2301 43.5803 32.2763 43.2516 32.2763C42.7071 32.2763 42.2242 32.1685 41.803 31.9527C41.3818 31.737 41.0479 31.4031 40.8013 30.951C40.565 30.499 40.4469 29.9134 40.4469 29.1943V23.7082H42.9126V28.6241C42.9126 29.2199 42.9999 29.672 43.1745 29.9802C43.3492 30.2884 43.6317 30.4425 44.0221 30.4425C44.4228 30.4425 44.731 30.3346 44.9467 30.1189C45.1625 29.9031 45.3114 29.5898 45.3936 29.1788C45.4861 28.7679 45.5323 28.2645 45.5323 27.6686V23.7082H47.998Z" fill="#4763E4"/>
<path d="M59.6177 23.5541C60.5321 23.5541 61.2204 23.8006 61.6827 24.2938C62.1553 24.7766 62.3916 25.5574 62.3916 26.6361V32.1222H59.9414V27.2063C59.9414 26.6002 59.8489 26.1481 59.664 25.8502C59.4893 25.542 59.2222 25.3879 58.8626 25.3879C58.349 25.3879 57.9894 25.6036 57.7839 26.0351C57.5784 26.4666 57.4757 27.0882 57.4757 27.8998V32.1222H55.01V27.2063C55.01 26.8057 54.969 26.4718 54.8868 26.2046C54.8148 25.9375 54.7018 25.7372 54.5477 25.6036C54.3936 25.4598 54.1882 25.3879 53.9313 25.3879C53.582 25.3879 53.3046 25.4958 53.0992 25.7115C52.904 25.9273 52.7653 26.2406 52.6831 26.6515C52.6009 27.0625 52.5598 27.5659 52.5598 28.1618V32.1222H50.0941V23.7082H51.9588L52.3132 24.7869H52.4057C52.5598 24.4992 52.7499 24.2681 52.9759 24.0934C53.2122 23.9085 53.4793 23.7749 53.7772 23.6928C54.0854 23.6003 54.4142 23.5541 54.7635 23.5541C55.3388 23.5541 55.8217 23.6568 56.2121 23.8623C56.6127 24.0575 56.9261 24.3657 57.1521 24.7869H57.2908C57.5373 24.3554 57.8661 24.0421 58.277 23.8469C58.6983 23.6517 59.1452 23.5541 59.6177 23.5541Z" fill="#4763E4"/>
<path d="M67.7668 35.8207C67.5408 35.8207 67.2891 35.8002 67.0117 35.7591C66.7343 35.7282 66.5032 35.6872 66.3182 35.6358V33.8328C66.4826 33.8739 66.6367 33.9047 66.7805 33.9252C66.9244 33.9561 67.0836 33.9715 67.2583 33.9715C67.5151 33.9715 67.736 33.8841 67.9209 33.7095C68.1058 33.5348 68.1983 33.1958 68.1983 32.6924V23.7082H70.6485V33.0314C70.6485 33.5451 70.5561 34.0126 70.3712 34.4338C70.1862 34.855 69.8832 35.1889 69.4619 35.4354C69.0407 35.6923 68.4757 35.8207 67.7668 35.8207ZM68.1212 21.5353C68.1212 21.1038 68.2497 20.811 68.5065 20.6569C68.7633 20.4925 69.0715 20.4104 69.4311 20.4104C69.7907 20.4104 70.0989 20.4925 70.3557 20.6569C70.6229 20.811 70.7564 21.1038 70.7564 21.5353C70.7564 21.9565 70.6229 22.2493 70.3557 22.4137C70.0989 22.5781 69.7907 22.6603 69.4311 22.6603C69.0715 22.6603 68.7633 22.5781 68.5065 22.4137C68.2497 22.2493 68.1212 21.9565 68.1212 21.5353Z" fill="#4763E4"/>
<path d="M76.1947 23.5541C76.9447 23.5541 77.5919 23.703 78.1364 24.001C78.6809 24.2989 79.1021 24.7304 79.4001 25.2954C79.698 25.8605 79.847 26.5539 79.847 27.3758V28.4854H74.8386C74.8591 29.1326 75.0235 29.6412 75.3317 30.011C75.6502 30.3809 76.1022 30.5658 76.6878 30.5658C77.2015 30.5658 77.6638 30.5144 78.0748 30.4117C78.496 30.2987 78.9275 30.1292 79.3692 29.9031V31.6753C78.9891 31.8808 78.573 32.0298 78.121 32.1222C77.6792 32.225 77.1296 32.2763 76.4721 32.2763C75.6708 32.2763 74.9567 32.1222 74.3301 31.814C73.7136 31.4955 73.2256 31.0178 72.8661 30.3809C72.5168 29.7439 72.3421 28.9426 72.3421 27.9768C72.3421 26.9906 72.5014 26.1738 72.8198 25.5266C73.1486 24.8691 73.6006 24.376 74.176 24.0472C74.7615 23.7184 75.4345 23.5541 76.1947 23.5541ZM76.2409 25.1876C75.8711 25.1876 75.5629 25.3314 75.3163 25.6191C75.0697 25.9067 74.9259 26.3536 74.8848 26.9598H77.5816C77.5816 26.6207 77.5303 26.3177 77.4275 26.0505C77.3248 25.7834 77.1758 25.5728 76.9806 25.4187C76.7854 25.2646 76.5389 25.1876 76.2409 25.1876Z" fill="#4763E4"/>
<path d="M83.9825 23.7082V32.1222H81.5168V23.7082H83.9825ZM82.7651 20.4104C83.1246 20.4104 83.4328 20.4925 83.6897 20.6569C83.9465 20.811 84.0749 21.1038 84.0749 21.5353C84.0749 21.9565 83.9465 22.2493 83.6897 22.4137C83.4328 22.5781 83.1246 22.6603 82.7651 22.6603C82.3952 22.6603 82.0819 22.5781 81.825 22.4137C81.5682 22.2493 81.4398 21.9565 81.4398 21.5353C81.4398 21.1038 81.5682 20.811 81.825 20.6569C82.0819 20.4925 82.3952 20.4104 82.7651 20.4104Z" fill="#4763E4"/>
<path d="M89.6981 30.4425C89.9447 30.4425 90.1707 30.4168 90.3762 30.3654C90.5919 30.3141 90.8128 30.2524 91.0388 30.1805V31.8911C90.782 31.9938 90.4789 32.0811 90.1296 32.153C89.7906 32.2352 89.3899 32.2763 88.9276 32.2763C88.4345 32.2763 87.9927 32.1941 87.6023 32.0298C87.2222 31.8654 86.9243 31.5829 86.7085 31.1822C86.4928 30.7712 86.3849 30.2062 86.3849 29.4871V25.4341H85.3832V24.4633L86.5853 23.6928L87.2633 21.9206H88.8506V23.7082H90.9464V25.4341H88.8506V29.4871C88.8506 29.8055 88.9276 30.047 89.0817 30.2113C89.2358 30.3654 89.4413 30.4425 89.6981 30.4425Z" fill="#4763E4"/>
<path d="M99.9602 27.8998C99.9602 28.5984 99.8678 29.2199 99.6829 29.7644C99.5082 30.3089 99.2514 30.7712 98.9123 31.1514C98.5733 31.5212 98.1572 31.8037 97.6641 31.9989C97.1812 32.1839 96.6367 32.2763 96.0306 32.2763C95.4656 32.2763 94.9416 32.1839 94.4587 31.9989C93.9759 31.8037 93.5598 31.5212 93.2105 31.1514C92.8715 30.7712 92.6044 30.3089 92.4092 29.7644C92.2242 29.2199 92.1318 28.5984 92.1318 27.8998C92.1318 26.9649 92.291 26.179 92.6095 25.542C92.928 24.8948 93.38 24.4016 93.9656 24.0626C94.5512 23.7236 95.2549 23.5541 96.0768 23.5541C96.8371 23.5541 97.5049 23.7236 98.0802 24.0626C98.6658 24.4016 99.1229 24.8948 99.4517 25.542C99.7907 26.179 99.9602 26.9649 99.9602 27.8998ZM94.6437 27.8998C94.6437 28.4546 94.6899 28.922 94.7824 29.3021C94.8851 29.672 95.0392 29.9545 95.2447 30.1497C95.4604 30.3346 95.7327 30.4271 96.0614 30.4271C96.4004 30.4271 96.6676 30.3346 96.8628 30.1497C97.0682 29.9545 97.2172 29.672 97.3097 29.3021C97.4021 28.922 97.4484 28.4546 97.4484 27.8998C97.4484 27.345 97.4021 26.8827 97.3097 26.5129C97.2172 26.143 97.0631 25.8656 96.8473 25.6807C96.6419 25.4958 96.3748 25.4033 96.046 25.4033C95.5426 25.4033 95.183 25.6139 94.9673 26.0351C94.7515 26.4461 94.6437 27.0676 94.6437 27.8998Z" fill="#4763E4"/>
<defs>
<clipPath id="clip0_1_158">
<rect width="28.766" height="28.766" fill="white" transform="translate(11.0441 7.1915)"/>
</clipPath>
</defs>
</svg>
